<svg width="108" height="34" viewBox="0 0 108 34" fill="none" xmlns="http://www.w3.org/2000/svg">
<rect x="0.5" y="0.5" width="107" height="33" rx="16.5" stroke="white"/>
<path d="M34.528 17.224C35.3067 17.384 35.8987 17.6987 36.304 18.168C36.7093 18.6267 36.912 19.2293 36.912 19.976C36.912 20.9467 36.5653 21.6933 35.872 22.216C35.1893 22.7387 34.1813 23 32.848 23H27.888V11.8H32.544C33.7387 11.8 34.672 12.0453 35.344 12.536C36.016 13.0267 36.352 13.736 36.352 14.664C36.352 15.2933 36.192 15.8267 35.872 16.264C35.552 16.6907 35.104 17.0107 34.528 17.224ZM29.056 16.872H32.48C33.344 16.872 34.0053 16.696 34.464 16.344C34.9333 15.992 35.168 15.48 35.168 14.808C35.168 14.136 34.9333 13.624 34.464 13.272C34.0053 12.92 33.344 12.744 32.48 12.744H29.056V16.872ZM32.848 22.056C34.7787 22.056 35.744 21.336 35.744 19.896C35.744 18.488 34.7787 17.784 32.848 17.784H29.056V22.056H32.848ZM43.0724 23.08C42.2617 23.08 41.531 22.8987 40.8804 22.536C40.2297 22.1627 39.7177 21.6507 39.3444 21C38.971 20.3493 38.7844 19.6133 38.7844 18.792C38.7844 17.9707 38.971 17.2347 39.3444 16.584C39.7177 15.9333 40.2297 15.4267 40.8804 15.064C41.531 14.7013 42.2617 14.52 43.0724 14.52C43.883 14.52 44.6137 14.7013 45.2644 15.064C45.915 15.4267 46.4217 15.9333 46.7844 16.584C47.1577 17.2347 47.3444 17.9707 47.3444 18.792C47.3444 19.6133 47.1577 20.3493 46.7844 21C46.4217 21.6507 45.915 22.1627 45.2644 22.536C44.6137 22.8987 43.883 23.08 43.0724 23.08ZM43.0724 22.072C43.6697 22.072 44.203 21.9387 44.6724 21.672C45.1524 21.3947 45.5257 21.0053 45.7924 20.504C46.059 20.0027 46.1924 19.432 46.1924 18.792C46.1924 18.152 46.059 17.5813 45.7924 17.08C45.5257 16.5787 45.1524 16.1947 44.6724 15.928C44.203 15.6507 43.6697 15.512 43.0724 15.512C42.475 15.512 41.9364 15.6507 41.4564 15.928C40.987 16.1947 40.6137 16.5787 40.3364 17.08C40.0697 17.5813 39.9364 18.152 39.9364 18.792C39.9364 19.432 40.0697 20.0027 40.3364 20.504C40.6137 21.0053 40.987 21.3947 41.4564 21.672C41.9364 21.9387 42.475 22.072 43.0724 22.072ZM49.7723 14.584H50.9083V21.272L56.5243 14.584H57.5323V23H56.3963V16.312L50.7963 23H49.7723V14.584ZM53.5963 13.368C52.8709 13.368 52.2949 13.1867 51.8683 12.824C51.4416 12.4613 51.2229 11.9493 51.2123 11.288H52.0283C52.0389 11.704 52.1883 12.04 52.4763 12.296C52.7643 12.5413 53.1376 12.664 53.5963 12.664C54.0549 12.664 54.4283 12.5413 54.7163 12.296C55.0149 12.04 55.1696 11.704 55.1803 11.288H55.9963C55.9856 11.9493 55.7616 12.4613 55.3243 12.824C54.8976 13.1867 54.3216 13.368 53.5963 13.368ZM66.7079 15.592H63.5239V23H62.3879V15.592H59.2039V14.584H66.7079V15.592ZM68.3504 14.584H69.4864V21.272L75.1024 14.584H76.1104V23H74.9744V16.312L69.3744 23H68.3504V14.584Z" fill="white"/>
</svg>
