<svg width="30" height="28" viewBox="0 0 30 28" fill="none" xmlns="http://www.w3.org/2000/svg">
<path d="M29.9034 8.26433C29.8866 7.08867 29.6504 5.9247 29.2054 4.82448C28.8194 3.89646 28.23 3.05364 27.4747 2.34989C26.7195 1.64613 25.8149 1.09692 24.819 0.737333C23.6534 0.329637 22.422 0.109189 21.1773 0.0853754C19.5746 0.0186274 19.0665 0 14.9983 0C10.9301 0 10.4087 1.04088e-07 8.81775 0.0853754C7.57357 0.109364 6.34276 0.32981 5.1777 0.737333C4.18157 1.09667 3.27691 1.64579 2.5216 2.34958C1.76629 3.05336 1.17696 3.89631 0.791315 4.82448C0.352895 5.90973 0.11682 7.05683 0.0932919 8.21621C0.021657 9.71106 0 10.1845 0 13.9752C0 17.7658 -1.24121e-08 18.2501 0.0932919 19.7341C0.118281 20.8952 0.353176 22.0408 0.791315 23.129C1.17761 24.0568 1.76737 24.8994 2.52294 25.6029C3.2785 26.3064 4.18325 26.8553 5.17936 27.2146C6.34124 27.6386 7.57226 27.8749 8.81942 27.9131C10.4237 27.9798 10.9318 28 15 28C19.0682 28 19.5896 28 21.1806 27.9131C22.4253 27.8902 23.6568 27.6703 24.8223 27.2627C25.818 26.9027 26.7223 26.3533 27.4775 25.6496C28.2327 24.9459 28.8223 24.1033 29.2087 23.1755C29.6468 22.0889 29.8817 20.9433 29.9067 19.7807C29.9783 18.2874 30 17.8139 30 14.0217C29.9967 10.2311 29.9967 9.74986 29.9034 8.26433V8.26433ZM14.9883 21.1436C10.7336 21.1436 7.28676 17.9319 7.28676 13.9674C7.28676 10.0029 10.7336 6.79122 14.9883 6.79122C17.0309 6.79122 18.9899 7.54728 20.4342 8.89308C21.8785 10.2389 22.6899 12.0642 22.6899 13.9674C22.6899 15.8706 21.8785 17.6959 20.4342 19.0417C18.9899 20.3875 17.0309 21.1436 14.9883 21.1436V21.1436ZM22.9964 8.19914C22.7606 8.19934 22.5269 8.1562 22.3089 8.07218C22.091 7.98815 21.8929 7.8649 21.7261 7.70948C21.5593 7.55405 21.427 7.3695 21.3368 7.16639C21.2467 6.96327 21.2004 6.74559 21.2006 6.52578C21.2006 6.30613 21.247 6.08864 21.3372 5.88571C21.4274 5.68278 21.5596 5.4984 21.7263 5.34309C21.893 5.18777 22.0909 5.06457 22.3087 4.98052C22.5265 4.89646 22.7599 4.8532 22.9956 4.8532C23.2313 4.8532 23.4648 4.89646 23.6825 4.98052C23.9003 5.06457 24.0982 5.18777 24.2649 5.34309C24.4316 5.4984 24.5638 5.68278 24.654 5.88571C24.7442 6.08864 24.7907 6.30613 24.7907 6.52578C24.7907 7.45094 23.9877 8.19914 22.9964 8.19914Z" fill="white"/>
</svg>
