<svg width="491" height="359" viewBox="0 0 491 359" fill="none" xmlns="http://www.w3.org/2000/svg">
<g clip-path="url(#clip0_14_472)">
<rect width="491" height="359" fill="white"/>
<rect width="130.162" height="359.392" fill="#B5FBFF"/>
<rect x="130.162" width="360.838" height="50.6186" fill="#B5FBFF"/>
<rect x="10.8468" y="70.866" width="18.0781" height="18.0781" rx="2.89249" fill="#2A8D99"/>
<rect x="10.8468" y="10.8468" width="18.0781" height="18.0781" rx="2.89249" fill="#2A8D99" fill-opacity="0.56"/>
<rect x="35.433" y="10.8468" width="18.0781" height="18.0781" rx="2.89249" fill="#2A8D99" fill-opacity="0.56"/>
<rect x="60.0191" y="10.8468" width="18.0781" height="18.0781" rx="2.89249" fill="#2A8D99" fill-opacity="0.56"/>
<rect x="141.009" y="10.8468" width="18.0781" height="18.0781" rx="2.89249" fill="#2A8D99"/>
<rect x="150.41" y="70.1428" width="18.0781" height="18.0781" rx="2.89249" fill="#2A8D99"/>
<rect x="150.41" y="104.853" width="18.0781" height="18.0781" rx="2.89249" fill="#2A8D99"/>
<rect x="150.41" y="139.563" width="18.0781" height="18.0781" rx="2.89249" fill="#2A8D99"/>
<rect x="150.41" y="174.272" width="18.0781" height="18.0781" rx="2.89249" fill="#2A8D99"/>
<rect x="150.41" y="208.982" width="18.0781" height="18.0781" rx="2.89249" fill="#2A8D99"/>
<rect x="150.41" y="243.692" width="18.0781" height="18.0781" rx="2.89249" fill="#2A8D99"/>
<rect x="150.41" y="278.402" width="18.0781" height="18.0781" rx="2.89249" fill="#2A8D99"/>
<rect x="332.636" y="10.8468" width="122.931" height="18.0781" rx="2.89249" fill="#B9D9DD"/>
<rect x="332.636" y="76.651" width="122.931" height="120.761" rx="2.89249" fill="#B5FBFF"/>
<rect x="150.41" y="329.021" width="267.555" height="18.0781" rx="2.89249" fill="#B9D9DD"/>
<rect x="461.352" y="10.8468" width="18.0781" height="18.0781" rx="2.89249" fill="#2A8D99"/>
<rect x="340.59" y="86.7747" width="18.0781" height="18.0781" rx="2.89249" fill="#2A8D99"/>
<rect x="430.981" y="329.021" width="39.0486" height="18.0781" rx="2.89249" fill="#2A8D99"/>
<rect x="174.996" y="70.1428" width="44.8336" height="5.78498" rx="2.89249" fill="#2A8D99"/>
<rect x="174.996" y="104.853" width="44.8336" height="5.78498" rx="2.89249" fill="#2A8D99"/>
<rect x="174.996" y="139.563" width="44.8336" height="5.78498" rx="2.89249" fill="#2A8D99"/>
<rect x="340.59" y="162.703" width="31.0943" height="5.78498" rx="2.89249" fill="#2A8D99"/>
<rect x="174.996" y="174.272" width="44.8336" height="5.78498" rx="2.89249" fill="#2A8D99"/>
<rect x="174.996" y="208.982" width="44.8336" height="5.78498" rx="2.89249" fill="#2A8D99"/>
<rect x="174.996" y="243.692" width="44.8336" height="5.78498" rx="2.89249" fill="#2A8D99"/>
<rect x="174.996" y="278.402" width="44.8336" height="5.78498" rx="2.89249" fill="#2A8D99"/>
<rect x="20.9705" y="342.76" width="98.3446" height="5.78498" rx="2.89249" fill="#B9D9DD"/>
<rect width="7.23122" height="5.78498" rx="2.89249" transform="matrix(-1 0 0 1 18.078 342.76)" fill="#B9D9DD"/>
<rect x="10.8468" y="91.8364" width="108.468" height="5.78498" rx="2.89249" fill="#B9D9DD"/>
<rect x="174.996" y="78.8203" width="110.638" height="5.78498" rx="2.89249" fill="#2A8D99" fill-opacity="0.33"/>
<rect x="174.996" y="113.53" width="110.638" height="5.78498" rx="2.89249" fill="#2A8D99" fill-opacity="0.33"/>
<rect x="174.996" y="148.24" width="110.638" height="5.78498" rx="2.89249" fill="#2A8D99" fill-opacity="0.33"/>
<rect x="340.59" y="171.38" width="77.3741" height="5.78498" rx="2.89249" fill="#B9D9DD"/>
<rect x="174.996" y="182.95" width="110.638" height="5.78498" rx="2.89249" fill="#2A8D99" fill-opacity="0.33"/>
<rect x="174.996" y="217.66" width="110.638" height="5.78498" rx="2.89249" fill="#2A8D99" fill-opacity="0.33"/>
<rect x="174.996" y="252.37" width="110.638" height="5.78498" rx="2.89249" fill="#2A8D99" fill-opacity="0.33"/>
<rect x="174.996" y="287.08" width="110.638" height="5.78498" rx="2.89249" fill="#2A8D99" fill-opacity="0.33"/>
<rect x="10.8468" y="100.514" width="67.9735" height="5.78498" rx="2.89249" fill="#B9D9DD"/>
<rect x="174.996" y="87.4978" width="80.9897" height="5.78498" rx="2.89249" fill="#2A8D99" fill-opacity="0.33"/>
<rect x="174.996" y="122.208" width="80.9897" height="5.78498" rx="2.89249" fill="#2A8D99" fill-opacity="0.33"/>
<rect x="174.996" y="156.918" width="80.9897" height="5.78498" rx="2.89249" fill="#2A8D99" fill-opacity="0.33"/>
<rect x="340.59" y="180.057" width="56.4035" height="5.78498" rx="2.89249" fill="#B9D9DD"/>
<rect x="174.996" y="191.627" width="80.9897" height="5.78498" rx="2.89249" fill="#2A8D99" fill-opacity="0.33"/>
<rect x="174.996" y="226.337" width="80.9897" height="5.78498" rx="2.89249" fill="#2A8D99" fill-opacity="0.33"/>
<rect x="174.996" y="261.047" width="80.9897" height="5.78498" rx="2.89249" fill="#2A8D99" fill-opacity="0.33"/>
<rect x="174.996" y="295.757" width="80.9897" height="5.78498" rx="2.89249" fill="#2A8D99" fill-opacity="0.33"/>
</g>
<defs>
<clipPath id="clip0_14_472">
<rect width="491" height="359" fill="white"/>
</clipPath>
</defs>
</svg>
