<svg width="90" height="31" viewBox="0 0 90 31" fill="none" xmlns="http://www.w3.org/2000/svg">
<path d="M52.152 20.112H43.752L42.096 24H38.88L46.44 7.2H49.512L57.096 24H53.832L52.152 20.112ZM51.12 17.664L47.952 10.32L44.808 17.664H51.12ZM64.4406 24.24C63.1446 24.24 61.8886 24.056 60.6726 23.688C59.4726 23.32 58.5206 22.832 57.8166 22.224L58.8966 19.8C59.5846 20.344 60.4246 20.792 61.4166 21.144C62.4246 21.48 63.4326 21.648 64.4406 21.648C65.6886 21.648 66.6166 21.448 67.2246 21.048C67.8486 20.648 68.1606 20.12 68.1606 19.464C68.1606 18.984 67.9846 18.592 67.6326 18.288C67.2966 17.968 66.8646 17.72 66.3366 17.544C65.8086 17.368 65.0886 17.168 64.1766 16.944C62.8966 16.64 61.8566 16.336 61.0566 16.032C60.2726 15.728 59.5926 15.256 59.0166 14.616C58.4566 13.96 58.1766 13.08 58.1766 11.976C58.1766 11.048 58.4246 10.208 58.9206 9.456C59.4326 8.688 60.1926 8.08 61.2006 7.632C62.2246 7.184 63.4726 6.96 64.9446 6.96C65.9686 6.96 66.9766 7.088 67.9686 7.344C68.9606 7.6 69.8166 7.968 70.5366 8.448L69.5526 10.872C68.8166 10.44 68.0486 10.112 67.2486 9.888C66.4486 9.664 65.6726 9.552 64.9206 9.552C63.6886 9.552 62.7686 9.76 62.1606 10.176C61.5686 10.592 61.2726 11.144 61.2726 11.832C61.2726 12.312 61.4406 12.704 61.7766 13.008C62.1286 13.312 62.5686 13.552 63.0966 13.728C63.6246 13.904 64.3446 14.104 65.2566 14.328C66.5046 14.616 67.5286 14.92 68.3286 15.24C69.1286 15.544 69.8086 16.016 70.3686 16.656C70.9446 17.296 71.2326 18.16 71.2326 19.248C71.2326 20.176 70.9766 21.016 70.4646 21.768C69.9686 22.52 69.2086 23.12 68.1846 23.568C67.1606 24.016 65.9126 24.24 64.4406 24.24ZM81.2383 7.2C82.6943 7.2 83.9583 7.44 85.0303 7.92C86.1183 8.4 86.9503 9.088 87.5263 9.984C88.1023 10.88 88.3903 11.944 88.3903 13.176C88.3903 14.392 88.1023 15.456 87.5263 16.368C86.9503 17.264 86.1183 17.952 85.0303 18.432C83.9583 18.912 82.6943 19.152 81.2383 19.152H77.4463V24H74.3263V7.2H81.2383ZM81.0943 16.512C82.4543 16.512 83.4863 16.224 84.1903 15.648C84.8943 15.072 85.2463 14.248 85.2463 13.176C85.2463 12.104 84.8943 11.28 84.1903 10.704C83.4863 10.128 82.4543 9.84 81.0943 9.84H77.4463V16.512H81.0943Z" fill="white"/>
<path d="M0 17.1861L4.48796 13.0727L12.129 11.8131L11.3737 15.5331L1.04371 18.4866L0.376285 18.2183L0 17.1861Z" fill="#CA2C31"/>
<path d="M5.26519 14.128L0.3927 18.2466L3.97703 19.8715L9.41806 17.2885V16.0698L10.5304 13.2798L5.26519 14.128Z" fill="#A02422"/>
<path d="M16.7955 21.3813L14.4416 22.3317L12.2196 26.7134C12.2196 26.7134 14.1752 30.7425 14.2631 30.7425C14.351 30.7425 15.4634 30.8243 15.4634 30.8243L19.4185 26.7109L20.4182 19.6848L16.7955 21.3813V21.3813Z" fill="#A02422"/>
<path d="M14.4829 24.6236C14.4829 24.6236 15.793 24.3758 16.7268 23.9619C17.6607 23.548 18.8143 22.9297 18.8143 22.9297L18.3913 26.361L14.2576 30.7375C14.2576 30.7375 14.0956 30.551 13.4089 29.1612C12.8624 28.0523 12.6729 27.6563 12.6729 27.6563L14.4829 24.6236V24.6236Z" fill="#CA2C31"/>
<path d="M7.63838 19.4677C7.63838 19.4677 6.06182 19.3451 4.33421 21.3763C2.75766 23.2311 2.01882 26.2511 1.73317 27.0278C1.44752 27.8044 0.76362 27.9629 0.991588 28.318C1.21956 28.6731 2.20559 28.6527 3.42234 28.5122C4.63908 28.3716 5.68279 28.0165 5.68279 28.0165C5.68279 28.0165 5.63061 28.1391 5.45482 28.4049C5.39165 28.4994 5.17192 28.6348 5.1884 28.7753C5.22686 29.11 8.30855 29.1177 10.7695 26.762C13.4282 24.2199 12.1373 22.1351 12.1373 22.1351L7.63838 19.4677Z" fill="#F7D74D"/>
<path d="M8.11344 20.6506C8.11344 20.6506 6.41328 20.7349 5.00702 22.7661C3.60076 24.7973 2.94706 27.1504 3.08165 27.3088C3.21348 27.4672 5.83375 26.5857 6.46272 26.762C6.89394 26.8846 6.67147 27.2909 6.78682 27.3982C6.88295 27.4876 8.02005 27.6383 9.86028 25.7835C11.7033 23.9286 11.2665 21.3226 11.2665 21.3226L8.11344 20.6506V20.6506Z" fill="#FBF0B4"/>
<path d="M8.94836 17.8785C8.94836 17.8785 8.09417 18.5863 7.7893 18.9925C7.48442 19.3987 7.48442 19.4345 7.50365 19.5571C7.52287 19.6798 7.83873 21.0262 9.15436 22.2066C10.7694 23.6552 12.2113 23.8494 12.4201 23.8494C12.6288 23.8494 14.0159 22.4008 14.0159 22.4008L8.94836 17.8785V17.8785Z" fill="#2A8D99"/>
<path d="M12.7251 22.1709C12.7251 22.1709 14.1094 23.0165 16.4303 22.2909C19.6026 21.2996 21.929 19.082 24.8102 16.2818C27.5897 13.5787 29.9216 10.224 29.9216 10.224L28.2874 5.13208L12.7251 22.1709Z" fill="#437687"/>
<path d="M17.6387 19.3835L18.0205 18.2798L18.9763 18.405C18.9763 18.405 19.7042 18.7243 20.2398 18.9568C20.7754 19.1893 21.4648 19.3656 21.4648 19.3656L20.1052 20.4336C20.1052 20.4336 19.3636 20.173 18.8225 19.9533C18.2128 19.7054 17.6387 19.3835 17.6387 19.3835V19.3835Z" fill="#2A8D99"/>
<path d="M22.124 2.9834C22.124 2.9834 19.4817 4.40905 15.6941 7.74322C12.2801 10.7478 9.75049 13.4663 9.13799 15.7785C8.62713 17.7151 8.89904 18.8904 10.0609 20.1602C11.2886 21.504 12.7278 22.1709 12.7278 22.1709C12.7278 22.1709 13.81 22.1862 18.3254 18.9542C23.9587 14.92 28.4714 8.16478 28.4714 8.16478L22.124 2.9834Z" fill="#8DAFBF"/>
<path d="M27.5788 9.54952C27.5788 9.54952 25.2799 8.63742 23.6401 6.50916C22.0114 4.39624 22.1405 2.96804 22.1405 2.96804C22.1405 2.96804 23.5028 1.97417 26.5653 0.837232C28.6252 0.0733099 31.4295 -0.317593 32.3524 0.318583C33.2752 0.954759 31.7207 4.14586 31.7207 4.14586L28.8889 9.24549L27.5788 9.54952Z" fill="#D83F22"/>
<path d="M17.6882 19.4013C17.6882 19.4013 15.7024 18.4586 14.439 17.1172C12.0494 14.5853 11.5551 11.8055 11.5551 11.8055L12.7553 10.4949C12.7553 10.4949 13.0547 13.4484 15.6173 16.0007C17.2872 17.664 19.0313 18.4254 19.0313 18.4254C19.0313 18.4254 18.6825 18.6987 18.309 18.9644C18.07 19.1356 17.6882 19.4013 17.6882 19.4013V19.4013Z" fill="#2A8D99"/>
<path d="M29.9215 10.224C29.9215 10.224 31.1136 8.88773 32.2424 5.87548C33.819 1.67518 32.4457 0.402832 32.4457 0.402832C32.4457 0.402832 31.9815 2.40078 30.3692 5.17798C29.0756 7.40332 27.51 9.52135 27.51 9.52135C27.51 9.52135 28.3724 9.8816 28.8394 10.0068C29.4271 10.1652 29.9215 10.224 29.9215 10.224Z" fill="#A02422"/>
<path d="M9.89865 16.6572C10.2557 16.974 10.7968 16.6419 11.1511 15.8652C11.5082 15.0885 11.5027 14.6541 11.228 14.4702C10.8874 14.2402 10.3161 14.7436 10.0662 15.1907C9.79153 15.6863 9.62948 16.417 9.89865 16.6572Z" fill="#2A8D99"/>
<path d="M22.297 4.00269C22.297 4.00269 20.2068 5.40023 17.9765 7.30109C15.9303 9.04611 14.5735 10.4104 14.3867 10.7272C14.189 11.0671 14.1862 11.5474 14.34 11.7926C14.4939 12.0379 14.8344 12.1657 15.1448 11.9511C15.4552 11.7339 17.6662 9.46 19.663 7.83507C21.4895 6.34811 22.8985 5.40534 22.8985 5.40534C22.8985 5.40534 23.4698 4.46513 23.3764 4.25051C23.283 4.03334 22.297 4.00269 22.297 4.00269V4.00269Z" fill="#2A8D99"/>
<path d="M22.297 4.00282C22.297 4.00282 23.8406 2.90164 25.5215 2.1275C27.0843 1.40701 28.6389 0.806607 28.9191 1.32781C29.1855 1.82347 27.4441 2.49797 25.9115 3.40752C24.3789 4.31707 22.904 5.40292 22.904 5.40292C22.904 5.40292 22.6788 5.01968 22.5332 4.66454C22.4409 4.44837 22.362 4.22743 22.297 4.00282V4.00282Z" fill="#2A8D99"/>
<path d="M23.5714 8.8879C22.0415 7.57722 19.9129 7.9298 18.8637 9.09485C17.787 10.2957 17.8667 12.1301 19.1383 13.2338C20.2947 14.2354 22.4452 14.4627 23.7416 13.0575C24.8952 11.8107 24.8238 9.95841 23.5714 8.8879Z" fill="#E1E1E1"/>
<path d="M19.6549 9.55716C18.7457 10.3875 18.7952 12.0329 19.8773 12.784C20.8222 13.4407 22.1625 13.4074 23.003 12.6077C23.8434 11.8081 23.8434 10.3543 23.0552 9.60315C22.1488 8.74214 20.6958 8.60673 19.6549 9.55716V9.55716Z" fill="#2A8D99"/>
<path d="M12.6975 18.5045C12.6975 18.5045 14.3977 16.9 14.5845 17.0737C14.7712 17.2474 14.7465 18.2209 13.9335 19.3042C13.1178 20.3874 11.3242 22.3164 9.90423 23.6169C8.50346 24.8969 6.52864 26.3609 6.34187 26.3353C6.1963 26.3149 5.60578 26.0415 5.36957 25.7758C5.13886 25.5126 5.82826 24.2684 6.10567 23.857C6.38582 23.4457 12.6975 18.5045 12.6975 18.5045Z" fill="#A02524"/>
<path d="M4.79557 24.8817C4.7736 25.2496 5.37785 25.7861 5.37785 25.7861L14.5845 17.0764C14.5845 17.0764 14.1533 16.6242 12.8843 17.3574C11.6044 18.0984 10.4838 18.9875 8.83033 20.477C6.52593 22.5567 4.81754 24.5138 4.79557 24.8817V24.8817Z" fill="#CA2C31"/>
<path d="M4.19963 8.30013C3.89476 8.58372 3.88103 9.0385 4.22161 9.2991C4.52373 9.5316 5.01537 9.38086 5.19939 9.17136C5.38341 8.96185 5.36144 8.50708 5.11699 8.28224C4.87255 8.05486 4.3864 8.12895 4.19963 8.30013V8.30013Z" fill="white"/>
<path opacity="0.5" d="M10.2311 7.96808C10.0004 8.20569 10.0745 8.55827 10.2888 8.68857C10.503 8.81887 10.8244 8.8061 10.9809 8.62725C11.121 8.46629 11.1375 8.14437 10.9232 7.94509C10.7365 7.77391 10.3794 7.81479 10.2311 7.96808Z" fill="white"/>
<path d="M14.2219 1.89747C14.2219 1.89747 14.5569 1.00835 14.7547 0.998133C14.9552 0.987914 15.2436 1.88725 15.2436 1.88725C15.2436 1.88725 16.2351 1.89747 16.301 2.03288C16.3862 2.20661 15.6666 2.78914 15.6666 2.78914C15.6666 2.78914 15.9 3.65781 15.7902 3.76256C15.6666 3.87754 14.8124 3.4202 14.8124 3.4202C14.8124 3.4202 13.9335 3.98995 13.744 3.8341C13.5792 3.69869 13.9225 2.77892 13.9225 2.77892C13.9225 2.77892 13.0985 2.21939 13.1424 2.06354C13.2056 1.84381 14.2219 1.89747 14.2219 1.89747V1.89747Z" fill="white"/>
<path d="M25.6093 23.2158C25.9417 23.387 26.3592 23.2899 26.513 22.9604C26.6531 22.6665 26.3949 22.3165 26.1614 22.222C25.9279 22.1274 25.5187 22.2526 25.3704 22.5005C25.2248 22.7457 25.4088 23.1136 25.6093 23.2158Z" fill="white"/>
<path d="M30.3281 15.6813C30.1386 15.4079 29.7294 15.3185 29.463 15.5383C29.2048 15.7529 29.268 16.0901 29.4135 16.2613C29.5591 16.4325 29.9491 16.4964 30.1853 16.3558C30.4215 16.2153 30.4435 15.8448 30.3281 15.6813V15.6813Z" fill="white"/>
</svg>
