<svg width="35" height="32" viewBox="0 0 35 32" fill="none" xmlns="http://www.w3.org/2000/svg">
<rect width="35" height="32" rx="5" fill="white"/>
<path d="M18 22C16.4087 22 14.8826 21.3679 13.7574 20.2426C12.6321 19.1174 12 17.5913 12 16C12 14.4087 12.6321 12.8826 13.7574 11.7574C14.8826 10.6321 16.4087 10 18 10C19.5913 10 21.1174 10.6321 22.2426 11.7574C23.3679 12.8826 24 14.4087 24 16C24 17.5913 23.3679 19.1174 22.2426 20.2426C21.1174 21.3679 19.5913 22 18 22ZM18 20C19.0609 20 20.0783 19.5786 20.8284 18.8284C21.5786 18.0783 22 17.0609 22 16C22 14.9391 21.5786 13.9217 20.8284 13.1716C20.0783 12.4214 19.0609 12 18 12C16.9391 12 15.9217 12.4214 15.1716 13.1716C14.4214 13.9217 14 14.9391 14 16C14 17.0609 14.4214 18.0783 15.1716 18.8284C15.9217 19.5786 16.9391 20 18 20V20ZM17 6H19V9H17V6ZM8 15H11V17H8V15ZM25 15H28V17H25V15ZM17 23H19V26H17V23ZM24.621 8L26.036 9.414L23.914 11.536L22.5 10.12L24.621 8V8ZM22.5 21.414L23.914 20L26.036 22.121L24.621 23.536L22.5 21.414V21.414ZM12.121 20L13.536 21.414L11.414 23.536L10 22.12L12.121 20ZM10 9.414L11.414 8L13.536 10.121L12.12 11.536L10 9.414Z" fill="#15D840"/>
</svg>
