<svg width="35" height="32" viewBox="0 0 35 32" fill="none" xmlns="http://www.w3.org/2000/svg">
<rect width="35" height="32" rx="5" fill="white"/>
<path d="M27 10.5876V10.5881V21.0079C27 21.0079 27 21.008 27 21.0081C26.9999 21.1374 26.9781 21.2562 26.9441 21.3512C26.9388 21.3661 26.9334 21.3798 26.9281 21.3924L21.4816 18.3992L20 17.585V19.2756V21.6574C20 22.2685 19.8318 22.8096 19.5882 23.1667C19.3459 23.5218 19.1151 23.5889 19 23.5889H10C9.88489 23.5889 9.65411 23.5218 9.41185 23.1667C9.16819 22.8096 9 22.2685 9 21.6574V9.93149C9 9.32038 9.16819 8.77933 9.41185 8.42219C9.65411 8.0671 9.88489 8 10 8H19C19.1151 8 19.3459 8.0671 19.5882 8.42219C19.8318 8.77933 20 9.32038 20 9.93149V12.3485H21L21.4851 13.2229L26.9284 10.2031C26.9337 10.2155 26.939 10.2289 26.9441 10.2434C26.9782 10.3388 27.0001 10.4579 27 10.5876ZM27.1311 10.0906C27.131 10.0907 27.1309 10.0908 27.1307 10.0909L27.1311 10.0906L27.1311 10.0906Z" stroke="#15D840" stroke-width="2"/>
</svg>
