<svg width="35" height="32" viewBox="0 0 35 32" fill="none" xmlns="http://www.w3.org/2000/svg">
<rect width="35" height="32" rx="5" fill="white"/>
<path fill-rule="evenodd" clip-rule="evenodd" d="M18 26C12.477 26 8 21.523 8 16C8 10.477 12.477 6 18 6C23.523 6 28 10.477 28 16C28 21.523 23.523 26 18 26ZM26 16C26 13.8783 25.1571 11.8434 23.6569 10.3431C22.1566 8.84285 20.1217 8 18 8C15.8783 8 13.8434 8.84285 12.3431 10.3431C10.8429 11.8434 10 13.8783 10 16C10 18.1217 10.8429 20.1566 12.3431 21.6569C13.8434 23.1571 15.8783 24 18 24C20.1217 24 22.1566 23.1571 23.6569 21.6569C25.1571 20.1566 26 18.1217 26 16ZM22 15C22.2652 15 22.5196 15.1054 22.7071 15.2929C22.8946 15.4804 23 15.7348 23 16C23 16.2652 22.8946 16.5196 22.7071 16.7071C22.5196 16.8946 22.2652 17 22 17H19C17.9 17 17 16.1 17 15V11C17 10.7348 17.1054 10.4804 17.2929 10.2929C17.4804 10.1054 17.7348 10 18 10C18.2652 10 18.5196 10.1054 18.7071 10.2929C18.8946 10.4804 19 10.7348 19 11V15H22Z" fill="#15D840"/>
</svg>
