<svg width="30" height="28" viewBox="0 0 30 28" fill="none" xmlns="http://www.w3.org/2000/svg">
<path d="M30 14C30 17.713 28.4196 21.2739 25.6066 23.8994C22.7936 26.5249 18.9782 27.9999 15 27.9999C11.0218 27.9999 7.20644 26.5249 4.3934 23.8994C1.58035 21.2739 0 17.713 0 14C0 10.2869 1.58035 6.726 4.3934 4.1005C7.20644 1.47499 11.0218 0 15 0C18.9782 0 22.7936 1.47499 25.6066 4.1005C28.4196 6.726 30 10.2869 30 14ZM15.5381 10.3355C14.0794 10.9025 11.1619 12.075 6.78938 13.853C6.08063 14.1155 5.7075 14.3745 5.67375 14.6265C5.6175 15.0517 6.18938 15.2197 6.9675 15.449L7.29563 15.5452C8.06063 15.778 9.09187 16.0492 9.62625 16.0597C10.1137 16.0702 10.6556 15.8847 11.2537 15.4997C15.3394 12.9255 17.4487 11.6252 17.58 11.5972C17.6737 11.5762 17.805 11.5517 17.8913 11.6252C17.9794 11.697 17.97 11.8352 17.9606 11.872C17.9044 12.0977 15.66 14.0437 14.4994 15.0517C14.1375 15.3667 13.8806 15.589 13.8281 15.6397C13.7125 15.75 13.595 15.8585 13.4756 15.9652C12.7631 16.6057 12.2306 17.0852 13.5037 17.8692C14.1169 18.2472 14.6081 18.557 15.0975 18.8685C15.63 19.208 16.1625 19.5457 16.8525 19.9692C17.0269 20.0742 17.1956 20.188 17.3588 20.2964C17.9794 20.7094 18.54 21.0804 19.2281 21.0209C19.6294 20.9859 20.0437 20.6359 20.2537 19.586C20.7506 17.1062 21.7275 11.7355 21.9525 9.52173C21.9662 9.3377 21.9581 9.15282 21.9281 8.97048C21.9105 8.82334 21.8342 8.68778 21.7144 8.59073C21.5438 8.48081 21.3404 8.42386 21.1331 8.42798C20.5706 8.43673 19.7025 8.71848 15.5381 10.3355Z" fill="white"/>
</svg>
