<svg width="30" height="28" viewBox="0 0 30 28" fill="none" xmlns="http://www.w3.org/2000/svg">
<path d="M15 0C6.71652 0 0 6.26875 0 14C0 21.7312 6.71652 28 15 28C23.2835 28 30 21.7312 30 14C30 6.26875 23.2835 0 15 0ZM22.2087 10.5531C22.2187 10.7 22.2187 10.8531 22.2187 11.0031C22.2187 15.5906 18.4754 20.875 11.635 20.875C9.52567 20.875 7.57031 20.3031 5.92299 19.3187C6.22433 19.35 6.51228 19.3625 6.82031 19.3625C8.56138 19.3625 10.1618 18.8125 11.4375 17.8812C9.80357 17.85 8.4308 16.85 7.96205 15.475C8.5346 15.5531 9.05022 15.5531 9.63951 15.4125C8.79819 15.253 8.04199 14.8265 7.49938 14.2056C6.95678 13.5846 6.66123 12.8075 6.66295 12.0062V11.9625C7.15513 12.2219 7.73437 12.3812 8.3404 12.4031C7.83095 12.0862 7.41314 11.6569 7.12403 11.1532C6.83493 10.6495 6.68345 10.087 6.68304 9.51563C6.68304 8.86875 6.86384 8.27813 7.18862 7.76563C8.12244 8.83855 9.28771 9.71607 10.6087 10.3411C11.9297 10.9662 13.3768 11.3249 14.856 11.3937C14.3304 9.03438 16.2187 7.125 18.4888 7.125C19.5603 7.125 20.5246 7.54375 21.2042 8.21875C22.0446 8.07187 22.8482 7.77812 23.5647 7.38437C23.2868 8.1875 22.7042 8.86562 21.9308 9.29375C22.6808 9.21875 23.404 9.025 24.0737 8.75313C23.5681 9.44688 22.9353 10.0625 22.2087 10.5531Z" fill="white"/>
</svg>
